<svg width="48" height="48" viewBox="0 0 48 48" fill="none" xmlns="http://www.w3.org/2000/svg">
<path d="M14 44H34C34.4813 44.0001 34.9464 43.8266 35.3101 43.5114C35.6738 43.1962 35.9117 42.7604 35.98 42.284L39.734 16H42V12H39.236L35.788 5.106C35.6224 4.77355 35.3673 4.4939 35.0514 4.29851C34.7355 4.10312 34.3714 3.99974 34 4H14C13.242 4 12.55 4.428 12.21 5.106L8.764 12H6V16H8.266L12.02 42.284C12.0883 42.7604 12.3262 43.1962 12.6899 43.5114C13.0536 43.8266 13.5187 44.0001 14 44V44ZM34.836 22H13.164L12.306 16H35.692L34.836 22ZM15.734 40L14.876 34H33.122L32.264 40H15.734V40ZM15.236 8H32.764L34.764 12H13.236L15.236 8Z" fill="#FF9466"/>
</svg>
