<svg width="48" height="48" viewBox="0 0 48 48" fill="none" xmlns="http://www.w3.org/2000/svg">
<path d="M42.15 14.505L25.545 4.90501C24.585 4.36501 23.415 4.36501 22.455 4.92001L5.86504 14.505C5.62105 14.647 5.42467 14.8582 5.30077 15.1119C5.17687 15.3655 5.13103 15.6503 5.16904 15.93H5.14504V19.74C5.14504 20.0625 5.25304 20.385 5.46904 20.643C4.08754 21.471 3.07954 22.959 3.04504 25.11C3.07654 27.084 3.93154 28.5 5.14504 29.3595V32.415C5.14504 32.895 5.38504 33.375 5.86504 33.645L22.47 43.245C23.415 43.8 24.6 43.8 25.545 43.245L42.15 33.645C42.63 33.375 42.87 32.895 42.87 32.415V29.3655C44.085 28.5075 44.946 27.0885 44.985 25.11C44.937 22.965 43.9245 21.477 42.54 20.649C42.754 20.3945 42.8709 20.0725 42.87 19.74V15.93H42.8475C42.8854 15.6501 42.8393 15.3653 42.7152 15.1116C42.591 14.8579 42.3943 14.6468 42.15 14.505V14.505ZM6.72154 15.7425L23.2065 6.21751C23.7 5.93251 24.3015 5.92951 24.8025 6.20851L41.2935 15.7425L24.7935 25.2825L24.786 25.287C24.309 25.566 23.706 25.566 23.229 25.287L6.72154 15.7425V15.7425ZM6.19504 21.1605L22.47 30.57C23.415 31.125 24.6 31.125 25.545 30.57L41.805 21.1695L42.135 21.36C43.08 21.915 43.08 23.28 42.135 23.835L25.53 33.435C24.585 33.99 23.4 33.99 22.455 33.435L5.85004 23.835C5.63409 23.7086 5.45499 23.5278 5.33052 23.3107C5.20606 23.0936 5.14058 22.8477 5.14058 22.5975C5.14058 22.3473 5.20606 22.1014 5.33052 21.8843C5.45499 21.6672 5.63409 21.4864 5.85004 21.36L6.19504 21.1605V21.1605ZM6.49654 30.0435C7.29674 30.3125 8.14567 30.4051 8.98504 30.315C9.78004 30.225 10.53 30.645 10.875 31.365C12 33.75 14.745 34.65 17.1 34.05C17.88 33.855 18.69 34.155 19.11 34.815C19.4945 35.7107 20.1174 36.4836 20.9109 37.0496C21.7044 37.6156 22.638 37.953 23.61 38.025H23.625C23.745 38.04 23.865 38.04 24 38.04H24.03C24.15 38.04 24.27 38.04 24.405 38.025H24.42C25.3921 37.953 26.3257 37.6156 27.1192 37.0496C27.9127 36.4836 28.5356 35.7107 28.92 34.815C29.34 34.155 30.15 33.855 30.93 34.05C33.27 34.65 36.03 33.75 37.155 31.365C37.5 30.645 38.25 30.225 39.045 30.315C39.8491 30.401 40.6622 30.3193 41.433 30.075L40.0155 30.8955C39.742 31.9642 39.2561 32.9669 38.5868 33.8439C37.9176 34.7208 37.0787 35.4541 36.12 36C34.0506 37.1935 31.6153 37.5863 29.2755 37.104L25.53 39.27C24.585 39.825 23.4 39.825 22.455 39.27L18.7125 37.107C16.3763 37.5853 13.9457 37.1915 11.88 36C10.9228 35.4551 10.0848 34.7234 9.41588 33.8483C8.74695 32.9733 8.26071 31.9727 7.98604 30.906L6.49654 30.0435V30.0435Z" fill="#FF9466"/>
</svg>
