<svg width="174" height="77" viewBox="0 0 174 77" fill="none" xmlns="http://www.w3.org/2000/svg">
<mask id="path-1-outside-1_101_5" maskUnits="userSpaceOnUse" x="0" y="0" width="87" height="77" fill="black">
<rect fill="white" width="87" height="77"/>
<path fill-rule="evenodd" clip-rule="evenodd" d="M68.9904 4.09703C65.3721 7.82868 61.4134 11.8969 48.5253 25.1275C43.9019 29.8737 40.1193 33.8537 40.1193 33.9721C40.1193 34.3212 38.9461 47.4589 38.914 47.4697C38.8978 47.4752 38.4489 47.8615 37.9167 48.328L36.949 49.1766L31.9327 45.0497C29.1738 42.78 21.1892 36.2161 14.1889 30.4635C7.18862 24.7109 1.33784 19.9019 1.1872 19.7768C0.686635 19.3612 1.1796 20.0745 2.79089 22.096C3.63929 23.1605 9.14908 30.0821 15.0348 37.4774C20.9207 44.8726 25.9111 51.1309 26.1247 51.3847L26.5132 51.846L23.8622 54.2854C21.848 56.4865 15.1735 63.9685 8.44909 71.5638C6.906 73.3068 7.82638 76.0273 8.66433 75.7848C9.62062 75.508 13.1589 72.2196 32.4004 68.9496L50.2318 65.9192L54.3419 68.5253C58.6441 71.2531 59.6904 71.8788 59.7679 71.7694C59.7936 71.7331 60.9277 69.3656 62.2882 66.5084C65.9829 58.7495 71.2659 47.793 71.832 46.7157L72.33 45.7676L77.9284 47.5808C85.353 49.9855 86.1155 50.2135 85.9879 49.9921C85.9282 49.8884 83.4693 47.7248 80.5237 45.1841C73.3433 38.9907 70.7039 36.5789 70.7039 36.2116C70.7039 36.0431 71.0926 28.2384 71.5675 18.8678C72.0424 9.4972 72.4057 1.56797 72.3749 1.24731C72.3215 0.694599 72.1473 0.841281 68.9904 4.09703ZM70.5958 4.01534C70.5221 4.26755 66.9789 12.8163 62.7217 23.0128C52.9956 46.3083 53.2023 45.8153 53.1216 45.9057C53.0106 46.0304 51.5688 45.0576 48.9588 43.097C47.6038 42.0791 46.4496 41.2463 46.3939 41.2463C46.3381 41.2463 44.9249 42.3919 43.2534 43.7919C39.9012 46.5994 39.6488 46.7306 39.8178 45.5755C39.8796 45.1554 40.1024 42.8405 40.3131 40.4314C40.818 34.6631 40.947 33.9427 41.5937 33.2822C41.8797 32.9899 46.041 28.7261 50.8408 23.8071C72.6408 1.46611 70.8021 3.308 70.5958 4.01534ZM71.5592 5.44142C71.4522 6.60836 71.3608 8.36632 70.5088 25.6592L69.9367 37.2696L69.3231 37.7807C67.56 39.2496 66.8573 40.0983 61.3321 47.4306C60.0956 49.0714 58.9705 50.414 58.8318 50.414C58.6004 50.414 54.5988 47.4595 54.023 46.8636C53.72 46.5501 54.7469 44.0268 70.7554 5.74701C71.4461 4.0952 71.691 4.00209 71.5592 5.44142ZM18.7481 35.2119C25.4349 40.7034 32.0951 46.2054 33.5486 47.439L36.1912 49.6816L35.2636 50.557L34.3358 51.4326L30.7211 51.4259L27.1066 51.4192L24.2446 47.8098C19.4973 41.8231 6.8463 25.8996 6.41926 25.3738C5.74753 24.5465 6.20972 24.9154 18.7481 35.2119ZM75.8877 42.214C78.7106 44.6512 81.3706 46.9843 81.7986 47.3988L82.5768 48.1526L81.817 47.9418C80.9279 47.6953 74.9193 45.7548 70.7148 44.3564L67.7809 43.3807L67.8237 42.1608C67.8966 40.0726 67.9682 39.9141 69.3407 38.8085C70.0383 38.2466 70.6418 37.786 70.6821 37.785C70.7222 37.7838 73.0648 39.7768 75.8877 42.214ZM67.0913 41.8066C67.083 42.7095 66.3566 45.5409 63.6805 55.0997C59.967 68.3649 59.6652 69.4062 59.5637 69.2976C59.5174 69.2477 59.1494 67.5459 58.7463 65.5158C58.2564 63.0479 57.8563 61.5374 57.5393 60.9578C57.2784 60.4811 56.6757 59.3853 56.2 58.5227L55.3349 56.9544L59.3625 51.4723C61.5778 48.4572 64.1372 44.9688 65.0503 43.7202C66.6823 41.4883 67.0978 41.0988 67.0913 41.8066ZM47.5573 49.0902C49.0219 56.2711 49.167 57.137 48.906 57.137C48.8046 57.137 46.7218 56.1642 44.2779 54.975C39.0373 52.4254 37.2653 51.6431 36.3844 51.4897C36.0276 51.4275 35.7603 51.3075 35.7904 51.2226C35.8341 51.0997 39.9875 47.5254 45.0672 43.2394C46.1889 42.2928 46.1546 42.2122 47.5573 49.0902ZM52.7777 46.9659C58.1513 51.0174 58.3688 51.2293 57.9382 51.9931C57.2807 53.159 55.0534 56.0939 54.9021 55.9936C54.7414 55.8871 48.3325 44.4605 48.1547 43.9632C47.9496 43.3899 48.5649 43.7896 52.7777 46.9659ZM69.4954 44.8241C71.6868 45.5034 71.6351 45.2507 70.2 48.2793C68.3178 52.2508 61.5548 66.1879 61.4531 66.3042C61.2816 66.5008 63.2781 59.2156 67.022 45.9829C67.2836 45.0586 67.5682 44.3022 67.6548 44.3022C67.7412 44.3022 68.5695 44.5371 69.4954 44.8241ZM52.0652 52.5873C56.3822 60.368 56.6122 60.8103 56.3343 60.7951C56.2448 60.79 54.8049 60.1246 53.1345 59.3164L50.0977 57.8467L48.7256 51.2273C47.9708 47.5865 47.3498 44.5652 47.3456 44.5133C47.3143 44.1248 48.4047 45.9901 52.0652 52.5873ZM40.1533 53.8539C47.9456 57.6583 47.7083 57.4988 46.3407 58.0138C45.1278 58.4705 27.0365 65.245 18.2162 68.5452C13.9533 70.1402 10.4127 71.3886 10.3481 71.3194C10.2836 71.2503 10.8244 70.5291 11.5499 69.7168C12.2754 68.9046 16.0623 64.6416 19.9656 60.2438L27.0623 52.2475H31.9625H36.8627L40.1533 53.8539ZM50.3409 58.888C52.8256 59.9899 56.4564 61.8626 56.4564 62.0421C56.4564 62.2346 54.6907 63.3887 53.132 64.2152C52.247 64.6844 51.2704 64.9421 48.7628 65.3673C46.9866 65.6684 38.5236 67.1028 29.9561 68.555C21.3886 70.007 14.1651 71.247 13.9039 71.3108C12.9419 71.5455 13.8357 71.0356 15.5187 70.3895C22.7074 67.6303 48.2381 58.1755 48.5362 58.1623C48.6203 58.1586 49.4324 58.4852 50.3409 58.888ZM57.5558 63.5034C57.9916 65.2284 58.8069 69.9638 58.6895 70.0895C58.5782 70.2088 55.0171 68.0925 52.3936 66.3478L51.6552 65.8568L53.3435 64.9772C54.272 64.4933 55.4591 63.8196 55.9815 63.4798C57.1901 62.6934 57.3518 62.6958 57.5558 63.5034Z"/>
</mask>
<path fill-rule="evenodd" clip-rule="evenodd" d="M68.9904 4.09703C65.3721 7.82868 61.4134 11.8969 48.5253 25.1275C43.9019 29.8737 40.1193 33.8537 40.1193 33.9721C40.1193 34.3212 38.9461 47.4589 38.914 47.4697C38.8978 47.4752 38.4489 47.8615 37.9167 48.328L36.949 49.1766L31.9327 45.0497C29.1738 42.78 21.1892 36.2161 14.1889 30.4635C7.18862 24.7109 1.33784 19.9019 1.1872 19.7768C0.686635 19.3612 1.1796 20.0745 2.79089 22.096C3.63929 23.1605 9.14908 30.0821 15.0348 37.4774C20.9207 44.8726 25.9111 51.1309 26.1247 51.3847L26.5132 51.846L23.8622 54.2854C21.848 56.4865 15.1735 63.9685 8.44909 71.5638C6.906 73.3068 7.82638 76.0273 8.66433 75.7848C9.62062 75.508 13.1589 72.2196 32.4004 68.9496L50.2318 65.9192L54.3419 68.5253C58.6441 71.2531 59.6904 71.8788 59.7679 71.7694C59.7936 71.7331 60.9277 69.3656 62.2882 66.5084C65.9829 58.7495 71.2659 47.793 71.832 46.7157L72.33 45.7676L77.9284 47.5808C85.353 49.9855 86.1155 50.2135 85.9879 49.9921C85.9282 49.8884 83.4693 47.7248 80.5237 45.1841C73.3433 38.9907 70.7039 36.5789 70.7039 36.2116C70.7039 36.0431 71.0926 28.2384 71.5675 18.8678C72.0424 9.4972 72.4057 1.56797 72.3749 1.24731C72.3215 0.694599 72.1473 0.841281 68.9904 4.09703ZM70.5958 4.01534C70.5221 4.26755 66.9789 12.8163 62.7217 23.0128C52.9956 46.3083 53.2023 45.8153 53.1216 45.9057C53.0106 46.0304 51.5688 45.0576 48.9588 43.097C47.6038 42.0791 46.4496 41.2463 46.3939 41.2463C46.3381 41.2463 44.9249 42.3919 43.2534 43.7919C39.9012 46.5994 39.6488 46.7306 39.8178 45.5755C39.8796 45.1554 40.1024 42.8405 40.3131 40.4314C40.818 34.6631 40.947 33.9427 41.5937 33.2822C41.8797 32.9899 46.041 28.7261 50.8408 23.8071C72.6408 1.46611 70.8021 3.308 70.5958 4.01534ZM71.5592 5.44142C71.4522 6.60836 71.3608 8.36632 70.5088 25.6592L69.9367 37.2696L69.3231 37.7807C67.56 39.2496 66.8573 40.0983 61.3321 47.4306C60.0956 49.0714 58.9705 50.414 58.8318 50.414C58.6004 50.414 54.5988 47.4595 54.023 46.8636C53.72 46.5501 54.7469 44.0268 70.7554 5.74701C71.4461 4.0952 71.691 4.00209 71.5592 5.44142ZM18.7481 35.2119C25.4349 40.7034 32.0951 46.2054 33.5486 47.439L36.1912 49.6816L35.2636 50.557L34.3358 51.4326L30.7211 51.4259L27.1066 51.4192L24.2446 47.8098C19.4973 41.8231 6.8463 25.8996 6.41926 25.3738C5.74753 24.5465 6.20972 24.9154 18.7481 35.2119ZM75.8877 42.214C78.7106 44.6512 81.3706 46.9843 81.7986 47.3988L82.5768 48.1526L81.817 47.9418C80.9279 47.6953 74.9193 45.7548 70.7148 44.3564L67.7809 43.3807L67.8237 42.1608C67.8966 40.0726 67.9682 39.9141 69.3407 38.8085C70.0383 38.2466 70.6418 37.786 70.6821 37.785C70.7222 37.7838 73.0648 39.7768 75.8877 42.214ZM67.0913 41.8066C67.083 42.7095 66.3566 45.5409 63.6805 55.0997C59.967 68.3649 59.6652 69.4062 59.5637 69.2976C59.5174 69.2477 59.1494 67.5459 58.7463 65.5158C58.2564 63.0479 57.8563 61.5374 57.5393 60.9578C57.2784 60.4811 56.6757 59.3853 56.2 58.5227L55.3349 56.9544L59.3625 51.4723C61.5778 48.4572 64.1372 44.9688 65.0503 43.7202C66.6823 41.4883 67.0978 41.0988 67.0913 41.8066ZM47.5573 49.0902C49.0219 56.2711 49.167 57.137 48.906 57.137C48.8046 57.137 46.7218 56.1642 44.2779 54.975C39.0373 52.4254 37.2653 51.6431 36.3844 51.4897C36.0276 51.4275 35.7603 51.3075 35.7904 51.2226C35.8341 51.0997 39.9875 47.5254 45.0672 43.2394C46.1889 42.2928 46.1546 42.2122 47.5573 49.0902ZM52.7777 46.9659C58.1513 51.0174 58.3688 51.2293 57.9382 51.9931C57.2807 53.159 55.0534 56.0939 54.9021 55.9936C54.7414 55.8871 48.3325 44.4605 48.1547 43.9632C47.9496 43.3899 48.5649 43.7896 52.7777 46.9659ZM69.4954 44.8241C71.6868 45.5034 71.6351 45.2507 70.2 48.2793C68.3178 52.2508 61.5548 66.1879 61.4531 66.3042C61.2816 66.5008 63.2781 59.2156 67.022 45.9829C67.2836 45.0586 67.5682 44.3022 67.6548 44.3022C67.7412 44.3022 68.5695 44.5371 69.4954 44.8241ZM52.0652 52.5873C56.3822 60.368 56.6122 60.8103 56.3343 60.7951C56.2448 60.79 54.8049 60.1246 53.1345 59.3164L50.0977 57.8467L48.7256 51.2273C47.9708 47.5865 47.3498 44.5652 47.3456 44.5133C47.3143 44.1248 48.4047 45.9901 52.0652 52.5873ZM40.1533 53.8539C47.9456 57.6583 47.7083 57.4988 46.3407 58.0138C45.1278 58.4705 27.0365 65.245 18.2162 68.5452C13.9533 70.1402 10.4127 71.3886 10.3481 71.3194C10.2836 71.2503 10.8244 70.5291 11.5499 69.7168C12.2754 68.9046 16.0623 64.6416 19.9656 60.2438L27.0623 52.2475H31.9625H36.8627L40.1533 53.8539ZM50.3409 58.888C52.8256 59.9899 56.4564 61.8626 56.4564 62.0421C56.4564 62.2346 54.6907 63.3887 53.132 64.2152C52.247 64.6844 51.2704 64.9421 48.7628 65.3673C46.9866 65.6684 38.5236 67.1028 29.9561 68.555C21.3886 70.007 14.1651 71.247 13.9039 71.3108C12.9419 71.5455 13.8357 71.0356 15.5187 70.3895C22.7074 67.6303 48.2381 58.1755 48.5362 58.1623C48.6203 58.1586 49.4324 58.4852 50.3409 58.888ZM57.5558 63.5034C57.9916 65.2284 58.8069 69.9638 58.6895 70.0895C58.5782 70.2088 55.0171 68.0925 52.3936 66.3478L51.6552 65.8568L53.3435 64.9772C54.272 64.4933 55.4591 63.8196 55.9815 63.4798C57.1901 62.6934 57.3518 62.6958 57.5558 63.5034Z" fill="white"/>
<path fill-rule="evenodd" clip-rule="evenodd" d="M68.9904 4.09703C65.3721 7.82868 61.4134 11.8969 48.5253 25.1275C43.9019 29.8737 40.1193 33.8537 40.1193 33.9721C40.1193 34.3212 38.9461 47.4589 38.914 47.4697C38.8978 47.4752 38.4489 47.8615 37.9167 48.328L36.949 49.1766L31.9327 45.0497C29.1738 42.78 21.1892 36.2161 14.1889 30.4635C7.18862 24.7109 1.33784 19.9019 1.1872 19.7768C0.686635 19.3612 1.1796 20.0745 2.79089 22.096C3.63929 23.1605 9.14908 30.0821 15.0348 37.4774C20.9207 44.8726 25.9111 51.1309 26.1247 51.3847L26.5132 51.846L23.8622 54.2854C21.848 56.4865 15.1735 63.9685 8.44909 71.5638C6.906 73.3068 7.82638 76.0273 8.66433 75.7848C9.62062 75.508 13.1589 72.2196 32.4004 68.9496L50.2318 65.9192L54.3419 68.5253C58.6441 71.2531 59.6904 71.8788 59.7679 71.7694C59.7936 71.7331 60.9277 69.3656 62.2882 66.5084C65.9829 58.7495 71.2659 47.793 71.832 46.7157L72.33 45.7676L77.9284 47.5808C85.353 49.9855 86.1155 50.2135 85.9879 49.9921C85.9282 49.8884 83.4693 47.7248 80.5237 45.1841C73.3433 38.9907 70.7039 36.5789 70.7039 36.2116C70.7039 36.0431 71.0926 28.2384 71.5675 18.8678C72.0424 9.4972 72.4057 1.56797 72.3749 1.24731C72.3215 0.694599 72.1473 0.841281 68.9904 4.09703ZM70.5958 4.01534C70.5221 4.26755 66.9789 12.8163 62.7217 23.0128C52.9956 46.3083 53.2023 45.8153 53.1216 45.9057C53.0106 46.0304 51.5688 45.0576 48.9588 43.097C47.6038 42.0791 46.4496 41.2463 46.3939 41.2463C46.3381 41.2463 44.9249 42.3919 43.2534 43.7919C39.9012 46.5994 39.6488 46.7306 39.8178 45.5755C39.8796 45.1554 40.1024 42.8405 40.3131 40.4314C40.818 34.6631 40.947 33.9427 41.5937 33.2822C41.8797 32.9899 46.041 28.7261 50.8408 23.8071C72.6408 1.46611 70.8021 3.308 70.5958 4.01534ZM71.5592 5.44142C71.4522 6.60836 71.3608 8.36632 70.5088 25.6592L69.9367 37.2696L69.3231 37.7807C67.56 39.2496 66.8573 40.0983 61.3321 47.4306C60.0956 49.0714 58.9705 50.414 58.8318 50.414C58.6004 50.414 54.5988 47.4595 54.023 46.8636C53.72 46.5501 54.7469 44.0268 70.7554 5.74701C71.4461 4.0952 71.691 4.00209 71.5592 5.44142ZM18.7481 35.2119C25.4349 40.7034 32.0951 46.2054 33.5486 47.439L36.1912 49.6816L35.2636 50.557L34.3358 51.4326L30.7211 51.4259L27.1066 51.4192L24.2446 47.8098C19.4973 41.8231 6.8463 25.8996 6.41926 25.3738C5.74753 24.5465 6.20972 24.9154 18.7481 35.2119ZM75.8877 42.214C78.7106 44.6512 81.3706 46.9843 81.7986 47.3988L82.5768 48.1526L81.817 47.9418C80.9279 47.6953 74.9193 45.7548 70.7148 44.3564L67.7809 43.3807L67.8237 42.1608C67.8966 40.0726 67.9682 39.9141 69.3407 38.8085C70.0383 38.2466 70.6418 37.786 70.6821 37.785C70.7222 37.7838 73.0648 39.7768 75.8877 42.214ZM67.0913 41.8066C67.083 42.7095 66.3566 45.5409 63.6805 55.0997C59.967 68.3649 59.6652 69.4062 59.5637 69.2976C59.5174 69.2477 59.1494 67.5459 58.7463 65.5158C58.2564 63.0479 57.8563 61.5374 57.5393 60.9578C57.2784 60.4811 56.6757 59.3853 56.2 58.5227L55.3349 56.9544L59.3625 51.4723C61.5778 48.4572 64.1372 44.9688 65.0503 43.7202C66.6823 41.4883 67.0978 41.0988 67.0913 41.8066ZM47.5573 49.0902C49.0219 56.2711 49.167 57.137 48.906 57.137C48.8046 57.137 46.7218 56.1642 44.2779 54.975C39.0373 52.4254 37.2653 51.6431 36.3844 51.4897C36.0276 51.4275 35.7603 51.3075 35.7904 51.2226C35.8341 51.0997 39.9875 47.5254 45.0672 43.2394C46.1889 42.2928 46.1546 42.2122 47.5573 49.0902ZM52.7777 46.9659C58.1513 51.0174 58.3688 51.2293 57.9382 51.9931C57.2807 53.159 55.0534 56.0939 54.9021 55.9936C54.7414 55.8871 48.3325 44.4605 48.1547 43.9632C47.9496 43.3899 48.5649 43.7896 52.7777 46.9659ZM69.4954 44.8241C71.6868 45.5034 71.6351 45.2507 70.2 48.2793C68.3178 52.2508 61.5548 66.1879 61.4531 66.3042C61.2816 66.5008 63.2781 59.2156 67.022 45.9829C67.2836 45.0586 67.5682 44.3022 67.6548 44.3022C67.7412 44.3022 68.5695 44.5371 69.4954 44.8241ZM52.0652 52.5873C56.3822 60.368 56.6122 60.8103 56.3343 60.7951C56.2448 60.79 54.8049 60.1246 53.1345 59.3164L50.0977 57.8467L48.7256 51.2273C47.9708 47.5865 47.3498 44.5652 47.3456 44.5133C47.3143 44.1248 48.4047 45.9901 52.0652 52.5873ZM40.1533 53.8539C47.9456 57.6583 47.7083 57.4988 46.3407 58.0138C45.1278 58.4705 27.0365 65.245 18.2162 68.5452C13.9533 70.1402 10.4127 71.3886 10.3481 71.3194C10.2836 71.2503 10.8244 70.5291 11.5499 69.7168C12.2754 68.9046 16.0623 64.6416 19.9656 60.2438L27.0623 52.2475H31.9625H36.8627L40.1533 53.8539ZM50.3409 58.888C52.8256 59.9899 56.4564 61.8626 56.4564 62.0421C56.4564 62.2346 54.6907 63.3887 53.132 64.2152C52.247 64.6844 51.2704 64.9421 48.7628 65.3673C46.9866 65.6684 38.5236 67.1028 29.9561 68.555C21.3886 70.007 14.1651 71.247 13.9039 71.3108C12.9419 71.5455 13.8357 71.0356 15.5187 70.3895C22.7074 67.6303 48.2381 58.1755 48.5362 58.1623C48.6203 58.1586 49.4324 58.4852 50.3409 58.888ZM57.5558 63.5034C57.9916 65.2284 58.8069 69.9638 58.6895 70.0895C58.5782 70.2088 55.0171 68.0925 52.3936 66.3478L51.6552 65.8568L53.3435 64.9772C54.272 64.4933 55.4591 63.8196 55.9815 63.4798C57.1901 62.6934 57.3518 62.6958 57.5558 63.5034Z" stroke="#E4E4E4" stroke-width="0.8" mask="url(#path-1-outside-1_101_5)"/>
<path d="M102.688 27.128C101.835 27.128 101.045 26.9893 100.32 26.712C99.6053 26.424 98.9813 26.024 98.448 25.512C97.9253 24.9893 97.5147 24.3813 97.216 23.688C96.9173 22.9947 96.768 22.232 96.768 21.4C96.768 20.568 96.9173 19.8053 97.216 19.112C97.5147 18.4187 97.9307 17.816 98.464 17.304C98.9973 16.7813 99.6213 16.3813 100.336 16.104C101.061 15.816 101.851 15.672 102.704 15.672C103.568 15.672 104.363 15.8213 105.088 16.12C105.824 16.408 106.448 16.84 106.96 17.416L105.92 18.424C105.493 17.976 105.013 17.6453 104.48 17.432C103.947 17.208 103.376 17.096 102.768 17.096C102.139 17.096 101.552 17.2027 101.008 17.416C100.475 17.6293 100.011 17.928 99.616 18.312C99.2213 18.696 98.912 19.1547 98.688 19.688C98.4747 20.2107 98.368 20.7813 98.368 21.4C98.368 22.0187 98.4747 22.5947 98.688 23.128C98.912 23.6507 99.2213 24.104 99.616 24.488C100.011 24.872 100.475 25.1707 101.008 25.384C101.552 25.5973 102.139 25.704 102.768 25.704C103.376 25.704 103.947 25.5973 104.48 25.384C105.013 25.16 105.493 24.8187 105.92 24.36L106.96 25.368C106.448 25.944 105.824 26.3813 105.088 26.68C104.363 26.9787 103.563 27.128 102.688 27.128ZM107.761 27L112.833 15.8H114.417L119.505 27H117.825L113.297 16.696H113.937L109.409 27H107.761ZM109.921 24.2L110.353 22.92H116.657L117.121 24.2H109.921ZM123.096 21.096H128.872V22.472H123.096V21.096ZM123.256 27H121.656V15.8H129.56V17.192H123.256V27ZM133.748 20.632H139.508V21.992H133.748V20.632ZM133.892 25.608H140.42V27H132.292V15.8H140.196V17.192H133.892V25.608Z" fill="white"/>
<path d="M102.736 63.128C101.883 63.128 101.088 62.984 100.352 62.696C99.6267 62.408 98.9973 62.008 98.464 61.496C97.9307 60.9733 97.5147 60.3653 97.216 59.672C96.9173 58.9787 96.768 58.2213 96.768 57.4C96.768 56.5787 96.9173 55.8213 97.216 55.128C97.5147 54.4347 97.9307 53.832 98.464 53.32C98.9973 52.7973 99.6267 52.392 100.352 52.104C101.077 51.816 101.872 51.672 102.736 51.672C103.589 51.672 104.373 51.816 105.088 52.104C105.813 52.3813 106.443 52.7813 106.976 53.304C107.52 53.816 107.936 54.4187 108.224 55.112C108.523 55.8053 108.672 56.568 108.672 57.4C108.672 58.232 108.523 58.9947 108.224 59.688C107.936 60.3813 107.52 60.9893 106.976 61.512C106.443 62.024 105.813 62.424 105.088 62.712C104.373 62.9893 103.589 63.128 102.736 63.128ZM102.736 61.704C103.355 61.704 103.925 61.5973 104.448 61.384C104.981 61.1707 105.44 60.872 105.824 60.488C106.219 60.0933 106.523 59.6347 106.736 59.112C106.96 58.5893 107.072 58.0187 107.072 57.4C107.072 56.7813 106.96 56.2107 106.736 55.688C106.523 55.1653 106.219 54.712 105.824 54.328C105.44 53.9333 104.981 53.6293 104.448 53.416C103.925 53.2027 103.355 53.096 102.736 53.096C102.107 53.096 101.525 53.2027 100.992 53.416C100.469 53.6293 100.011 53.9333 99.616 54.328C99.2213 54.712 98.912 55.1653 98.688 55.688C98.4747 56.2107 98.368 56.7813 98.368 57.4C98.368 58.0187 98.4747 58.5893 98.688 59.112C98.912 59.6347 99.2213 60.0933 99.616 60.488C100.011 60.872 100.469 61.1707 100.992 61.384C101.525 61.5973 102.107 61.704 102.736 61.704ZM111.597 63V51.8H115.965C116.947 51.8 117.784 51.9547 118.477 52.264C119.171 52.5733 119.704 53.0213 120.078 53.608C120.451 54.1947 120.637 54.8933 120.637 55.704C120.637 56.5147 120.451 57.2133 120.078 57.8C119.704 58.376 119.171 58.8187 118.477 59.128C117.784 59.4373 116.947 59.592 115.965 59.592H112.477L113.197 58.856V63H111.597ZM119.085 63L116.237 58.936H117.95L120.83 63H119.085ZM113.197 59.016L112.477 58.232H115.918C116.941 58.232 117.715 58.0133 118.238 57.576C118.771 57.128 119.038 56.504 119.038 55.704C119.038 54.904 118.771 54.2853 118.238 53.848C117.715 53.4107 116.941 53.192 115.918 53.192H112.477L113.197 52.392V59.016ZM123.702 63V51.8H125.302V63H123.702ZM134.192 63.128C133.328 63.128 132.533 62.9893 131.808 62.712C131.082 62.424 130.453 62.024 129.92 61.512C129.386 60.9893 128.97 60.3813 128.672 59.688C128.373 58.9947 128.224 58.232 128.224 57.4C128.224 56.568 128.373 55.8053 128.672 55.112C128.97 54.4187 129.386 53.816 129.92 53.304C130.464 52.7813 131.098 52.3813 131.824 52.104C132.549 51.816 133.349 51.672 134.224 51.672C135.109 51.672 135.92 51.816 136.656 52.104C137.392 52.392 138.016 52.824 138.528 53.4L137.536 54.392C137.077 53.944 136.576 53.6187 136.032 53.416C135.498 53.2027 134.917 53.096 134.288 53.096C133.648 53.096 133.05 53.2027 132.496 53.416C131.952 53.6293 131.477 53.928 131.072 54.312C130.677 54.696 130.368 55.1547 130.144 55.688C129.93 56.2107 129.824 56.7813 129.824 57.4C129.824 58.008 129.93 58.5787 130.144 59.112C130.368 59.6347 130.677 60.0933 131.072 60.488C131.477 60.872 131.952 61.1707 132.496 61.384C133.04 61.5973 133.632 61.704 134.272 61.704C134.869 61.704 135.44 61.6133 135.984 61.432C136.538 61.24 137.05 60.9253 137.52 60.488L138.432 61.704C137.877 62.1733 137.226 62.5307 136.48 62.776C135.744 63.0107 134.981 63.128 134.192 63.128ZM136.896 61.496V57.336H138.432V61.704L136.896 61.496ZM140.279 63L145.351 51.8H146.935L152.023 63H150.343L145.815 52.696H146.455L141.927 63H140.279ZM142.439 60.2L142.871 58.92H149.175L149.639 60.2H142.439ZM154.174 63V51.8H155.486L160.51 60.264H159.806L164.766 51.8H166.078L166.094 63H164.558L164.542 54.216H164.91L160.494 61.64H159.758L155.31 54.216H155.71V63H154.174ZM169.935 63V51.8H171.535V63H169.935Z" fill="white"/>
</svg>
